<?xml version="1.0"?>
<svg width="300" height="300" xmlns="http://www.w3.org/2000/svg" xmlns:svg="http://www.w3.org/2000/svg" xmlns:xlink="http://www.w3.org/1999/xlink" version="1.1" xml:space="preserve">
 <!-- Created with SVG-edit - https://github.com/SVG-Edit/svgedit-->
 <defs>
  <symbol height="800px" id="svg_2" viewBox="0 0 512.001 512.001" width="800px" xmlns="http://www.w3.org/2000/svg" xmlns:xlink="http://www.w3.org/1999/xlink">
   <g id="svg_1">
    <g id="svg_4">
     <g id="svg_5">
      <path d="m480.74,362.37c-3.63,-6.6 -11.93,-11.38 -19.73,-11.38c-0.33,0 -0.67,0.01 -1,0.02l-172,8.96l0,-21.36l138.65,-7.22c11.07,-0.58 20.58,-6.55 25.43,-15.98c5.24,-10.18 4.33,-22.59 -2.44,-33.18l-161.83,-253.63c-1.7,-16.05 -15.32,-28.6 -31.81,-28.6c-17.65,0 -32.01,14.36 -32.01,32l0,52.31l-6.11,8.02c-5.04,6.54 -15.72,19.61 -29.24,36.15c-37.69,46.13 -100.78,123.34 -127.04,164.23c-9.23,14.37 -10.58,30.83 -3.54,42.98c5,8.61 13.77,13.62 23.68,13.62c0.51,0 1.02,-0.01 1.54,-0.04l140.71,-7.33l0,21.36l-173.66,9.05c-6.76,0.35 -13.39,3.75 -17.29,8.88c-3.35,4.39 -4.55,9.68 -3.4,14.9l21.33,96.67c2.58,11.66 10.92,19.2 21.25,19.2l313.67,0c11.01,0 15.78,-8.6 18.35,-13.21c0.52,-0.94 1.01,-1.82 1.5,-2.59l74.67,-118c3.02,-4.78 3.14,-10.7 0.32,-15.83zm-192.73,-293.82l143.66,225.16c2.63,4.12 3.17,8.59 1.45,11.94c-1.4,2.71 -4.01,4.25 -7.57,4.43l-137.54,7.17l0,-248.7zm-42.67,-36.55c0,-5.88 4.79,-10.66 10.67,-10.66c5.88,0 10.66,4.78 10.66,10.66l0,329.08l-21.33,1.11l0,-330.19zm-163.16,295.96c-2.6,0.14 -4.4,-0.81 -5.65,-2.98c-2.43,-4.19 -2.44,-12.23 3.03,-20.74c25.6,-39.87 88.21,-116.49 125.61,-162.26c7.22,-8.83 13.62,-16.66 18.83,-23.11l0,44.29c-5.87,7.64 -22.39,29.09 -36.17,46.78c-3.62,4.65 -2.78,11.35 1.86,14.97c1.95,1.52 4.26,2.25 6.55,2.25c3.18,0 6.32,-1.41 8.42,-4.11c6.3,-8.09 13.18,-16.96 19.34,-24.95l0,122.48l-141.82,7.38zm305.54,156.83c-0.81,1.28 -1.5,2.53 -2.12,3.63c-0.37,0.68 -0.86,1.57 -1.28,2.24l-311.56,0c-0.27,-0.4 -0.67,-1.2 -0.95,-2.46l-20.84,-94.47c0.16,-0.04 0.32,-0.07 0.48,-0.08l407.36,-21.21l-71.09,112.35z" id="svg_6"/>
      <path d="m184.71,231.41c-4.56,-3.72 -11.28,-3.04 -15,1.53c-0.37,0.44 -0.7,0.84 -0.98,1.18c-3.78,4.52 -3.17,11.25 1.35,15.02c2,1.67 4.42,2.48 6.83,2.48c3.06,0 6.09,-1.31 8.2,-3.83c0.33,-0.39 0.71,-0.85 1.13,-1.38c3.72,-4.56 3.04,-11.28 -1.53,-15z" id="svg_7"/>
      <path d="m387.85,419.99c0.17,0 0.33,0 0.5,-0.01l0.93,-0.04c5.88,-0.26 10.44,-5.25 10.17,-11.14c-0.26,-5.88 -5.25,-10.44 -11.13,-10.17l-0.95,0.04c-5.88,0.27 -10.43,5.26 -10.16,11.14c0.26,5.72 4.98,10.18 10.64,10.18z" id="svg_8"/>
      <path d="m290.64,425.53c0.29,0 0.58,-0.01 0.87,-0.03c14.76,-1.2 36.19,-2.5 65.53,-3.98c5.88,-0.3 10.41,-5.31 10.11,-11.19c-0.29,-5.89 -5.34,-10.42 -11.19,-10.12c-29.96,1.51 -50.99,2.79 -66.17,4.02c-5.87,0.48 -10.24,5.63 -9.77,11.5c0.45,5.58 5.12,9.8 10.62,9.8z" id="svg_9"/>
     </g>
    </g>
   </g>
  </symbol>
  <symbol height="800px" id="svg_11" version="1.1" viewBox="0 0 512.001 512.001" width="800px" xml:space="preserve" xmlns="http://www.w3.org/2000/svg" xmlns:xlink="http://www.w3.org/1999/xlink">
   <g>
    <path d="m234.67,373.43l-183.77,9.57c-5.95,0.31 -12.11,5.01 -10.83,10.83l21.33,96.67c1.28,5.82 4.88,10.83 10.83,10.83l313.67,0c5.94,0 7.65,-5.81 10.83,-10.83l74.67,-118c3.18,-5.02 -4.88,-11.14 -10.83,-10.83l-183.23,9.54l-42.67,2.22z" fill="#7BA9D6"/>
    <path d="m234.67,166.78l0,163.93l0,42.72l42.67,-2.22l0,-42.72l0,-296.49c0,-11.73 -9.6,-21.33 -21.33,-21.33c-11.74,0 -21.34,9.6 -21.34,21.33l0,55.92l0,78.86l0,0z" fill="#F9EACD"/>
    <g>
     <path d="m277.34,32l0,296.48l148.77,-7.74c16.26,-0.85 24.06,-17.89 14.55,-32.78l-163.32,-255.96z" fill="#9FDEE2"/>
     <path d="m234.67,330.71l0,-163.93l0,-78.87l-8.33,10.92c-19.66,25.53 -120.66,144.99 -155.76,199.64c-12.61,19.64 -5,41.04 12.15,40.15l151.94,-7.91z" fill="#9FDEE2"/>
    </g>
   </g>
   <g>
    <path d="m480.74,362.37c-3.63,-6.6 -11.93,-11.38 -19.73,-11.38c-0.33,0 -0.67,0.01 -1,0.02l-172,8.96l0,-21.36l138.65,-7.22c11.07,-0.58 20.58,-6.55 25.43,-15.98c5.24,-10.18 4.33,-22.59 -2.44,-33.18l-161.83,-253.63c-1.7,-16.05 -15.32,-28.6 -31.81,-28.6c-17.65,0 -32.01,14.36 -32.01,32l0,52.31l-6.11,8.02c-5.04,6.54 -15.72,19.61 -29.24,36.15c-37.69,46.13 -100.78,123.34 -127.04,164.23c-9.23,14.37 -10.58,30.83 -3.54,42.98c5,8.61 13.77,13.62 23.68,13.62c0.51,0 1.02,-0.01 1.54,-0.04l140.71,-7.33l0,21.36l-173.66,9.05c-6.76,0.35 -13.39,3.75 -17.29,8.89c-3.35,4.38 -4.55,9.67 -3.4,14.89l21.33,96.67c2.58,11.67 10.92,19.2 21.25,19.2l313.67,0c11.01,0 15.78,-8.59 18.35,-13.21c0.52,-0.94 1.01,-1.82 1.5,-2.59l74.67,-118c3.02,-4.78 3.14,-10.7 0.32,-15.83zm-47.62,-56.72c-1.4,2.71 -4.01,4.25 -7.57,4.43l-137.54,7.17l0,-248.7l143.66,225.16c2.63,4.12 3.17,8.59 1.45,11.94zm-350.94,22.31c-2.6,0.14 -4.4,-0.81 -5.65,-2.98c-2.44,-4.19 -2.44,-12.23 3.03,-20.74c25.6,-39.87 88.21,-116.49 125.61,-162.26c7.22,-8.83 13.62,-16.66 18.83,-23.11l0,44.29c-5.87,7.64 -22.39,29.09 -36.17,46.78c-3.62,4.65 -2.79,11.35 1.86,14.97c1.95,1.52 4.26,2.25 6.55,2.25c3.18,0 6.32,-1.41 8.42,-4.11c6.3,-8.09 13.17,-16.96 19.34,-24.95l0,122.48l-141.82,7.38zm163.16,-295.96c0,-5.88 4.79,-10.66 10.67,-10.66s10.66,4.78 10.66,10.66l0,329.08l-21.33,1.11l0,-330.19zm142.38,452.79c-0.81,1.28 -1.5,2.53 -2.12,3.63c-0.37,0.68 -0.86,1.57 -1.29,2.24l-311.55,0c-0.27,-0.4 -0.67,-1.2 -0.94,-2.46l-20.85,-94.47c0.16,-0.04 0.32,-0.07 0.49,-0.08l407.36,-21.21l-71.1,112.35z" fill="#000003"/>
    <path d="m184.71,231.41c-4.56,-3.72 -11.28,-3.04 -15,1.53c-0.37,0.44 -0.7,0.84 -0.98,1.18c-3.78,4.52 -3.17,11.25 1.35,15.02c2,1.67 4.42,2.48 6.83,2.48c3.06,0 6.09,-1.31 8.2,-3.83c0.33,-0.39 0.71,-0.85 1.13,-1.38c3.72,-4.56 3.04,-11.28 -1.53,-15z" fill="#000003"/>
    <path d="m387.85,419.99c0.17,0 0.33,0 0.5,-0.01l0.93,-0.04c5.88,-0.26 10.44,-5.25 10.17,-11.14s-5.25,-10.44 -11.13,-10.17l-0.95,0.04c-5.88,0.27 -10.43,5.26 -10.16,11.14c0.26,5.72 4.98,10.18 10.64,10.18z" fill="#000003"/>
    <path d="m290.64,425.53c0.29,0 0.58,-0.01 0.87,-0.03c14.76,-1.2 36.19,-2.5 65.53,-3.98c5.88,-0.3 10.41,-5.31 10.11,-11.19c-0.29,-5.89 -5.34,-10.42 -11.19,-10.12c-29.96,1.51 -50.99,2.79 -66.17,4.02c-5.87,0.48 -10.24,5.63 -9.77,11.5c0.45,5.58 5.12,9.8 10.62,9.8z" fill="#000003"/>
   </g>
  </symbol>
 </defs>
 <g class="layer">
  <title>Layer 1</title>
  <use fill="#cccccc" id="svg_3" transform="matrix(0.421332 0 0 0.369784 -150.037 -67.2289)" x="314.49" xlink:href="#svg_2" y="187.13"/>
  <use id="svg_12" transform="matrix(0.423827 0 0 0.369768 -86.6751 -132.594)" x="158.72" xlink:href="#svg_11" y="368.64"/>
 </g>
</svg>